<mxfile host="Electron" agent="Mozilla/5.0 (Windows NT 10.0; Win64; x64) AppleWebKit/537.36 (KHTML, like Gecko) draw.io/27.0.9 Chrome/134.0.6998.205 Electron/35.4.0 Safari/537.36" version="27.0.9">
  <diagram name="Page-1" id="HZq7GI4jKU5SYfVMRoX-">
    <mxGraphModel dx="1246" dy="767" grid="1" gridSize="10" guides="1" tooltips="1" connect="1" arrows="1" fold="1" page="1" pageScale="1" pageWidth="1000" pageHeight="700" math="0" shadow="0">
      <root>
        <mxCell id="0" />
        <mxCell id="1" parent="0" />
        <mxCell id="yamRK4CiRdS7FuXm4xir-12" value="" style="edgeStyle=orthogonalEdgeStyle;rounded=0;orthogonalLoop=1;jettySize=auto;html=1;" edge="1" parent="1" source="yamRK4CiRdS7FuXm4xir-5" target="yamRK4CiRdS7FuXm4xir-11">
          <mxGeometry relative="1" as="geometry" />
        </mxCell>
        <mxCell id="yamRK4CiRdS7FuXm4xir-13" value="Rest" style="edgeLabel;html=1;align=center;verticalAlign=middle;resizable=0;points=[];" vertex="1" connectable="0" parent="yamRK4CiRdS7FuXm4xir-12">
          <mxGeometry x="-0.3568" y="2" relative="1" as="geometry">
            <mxPoint y="12" as="offset" />
          </mxGeometry>
        </mxCell>
        <mxCell id="yamRK4CiRdS7FuXm4xir-19" style="edgeStyle=orthogonalEdgeStyle;rounded=0;orthogonalLoop=1;jettySize=auto;html=1;entryX=0.5;entryY=0;entryDx=0;entryDy=0;" edge="1" parent="1" source="yamRK4CiRdS7FuXm4xir-5" target="yamRK4CiRdS7FuXm4xir-14">
          <mxGeometry relative="1" as="geometry" />
        </mxCell>
        <mxCell id="yamRK4CiRdS7FuXm4xir-20" value="Rest" style="edgeLabel;html=1;align=center;verticalAlign=middle;resizable=0;points=[];" vertex="1" connectable="0" parent="yamRK4CiRdS7FuXm4xir-19">
          <mxGeometry x="0.6184" relative="1" as="geometry">
            <mxPoint as="offset" />
          </mxGeometry>
        </mxCell>
        <mxCell id="yamRK4CiRdS7FuXm4xir-26" value="" style="edgeStyle=orthogonalEdgeStyle;rounded=0;orthogonalLoop=1;jettySize=auto;html=1;" edge="1" parent="1" source="yamRK4CiRdS7FuXm4xir-5" target="yamRK4CiRdS7FuXm4xir-25">
          <mxGeometry relative="1" as="geometry" />
        </mxCell>
        <mxCell id="yamRK4CiRdS7FuXm4xir-28" value="Rest" style="edgeLabel;html=1;align=center;verticalAlign=middle;resizable=0;points=[];" vertex="1" connectable="0" parent="yamRK4CiRdS7FuXm4xir-26">
          <mxGeometry x="0.63" y="-1" relative="1" as="geometry">
            <mxPoint as="offset" />
          </mxGeometry>
        </mxCell>
        <mxCell id="yamRK4CiRdS7FuXm4xir-5" value="" style="verticalLabelPosition=bottom;aspect=fixed;html=1;shape=mxgraph.salesforce.web2;" vertex="1" parent="1">
          <mxGeometry x="310" y="121.37" width="93.75" height="93.75" as="geometry" />
        </mxCell>
        <mxCell id="yamRK4CiRdS7FuXm4xir-23" value="" style="edgeStyle=orthogonalEdgeStyle;rounded=0;orthogonalLoop=1;jettySize=auto;html=1;" edge="1" parent="1" source="yamRK4CiRdS7FuXm4xir-7" target="yamRK4CiRdS7FuXm4xir-22">
          <mxGeometry relative="1" as="geometry" />
        </mxCell>
        <mxCell id="yamRK4CiRdS7FuXm4xir-24" value="GRPC" style="edgeLabel;html=1;align=center;verticalAlign=middle;resizable=0;points=[];" vertex="1" connectable="0" parent="yamRK4CiRdS7FuXm4xir-23">
          <mxGeometry x="-0.028" y="-1" relative="1" as="geometry">
            <mxPoint as="offset" />
          </mxGeometry>
        </mxCell>
        <mxCell id="yamRK4CiRdS7FuXm4xir-7" value="" style="image;aspect=fixed;html=1;points=[];align=center;fontSize=12;image=img/lib/azure2/general/Mobile.svg;" vertex="1" parent="1">
          <mxGeometry x="827.5" y="121.37" width="60" height="100.5" as="geometry" />
        </mxCell>
        <mxCell id="yamRK4CiRdS7FuXm4xir-8" value="Database" style="shape=datastore;whiteSpace=wrap;html=1;" vertex="1" parent="1">
          <mxGeometry x="537.5" y="880" width="115" height="130" as="geometry" />
        </mxCell>
        <mxCell id="yamRK4CiRdS7FuXm4xir-43" style="edgeStyle=orthogonalEdgeStyle;rounded=0;orthogonalLoop=1;jettySize=auto;html=1;" edge="1" parent="1" source="yamRK4CiRdS7FuXm4xir-11" target="yamRK4CiRdS7FuXm4xir-38">
          <mxGeometry relative="1" as="geometry" />
        </mxCell>
        <mxCell id="yamRK4CiRdS7FuXm4xir-11" value="Person API" style="rounded=1;whiteSpace=wrap;html=1;" vertex="1" parent="1">
          <mxGeometry x="280" y="320" width="159.08" height="60" as="geometry" />
        </mxCell>
        <mxCell id="yamRK4CiRdS7FuXm4xir-44" style="edgeStyle=orthogonalEdgeStyle;rounded=0;orthogonalLoop=1;jettySize=auto;html=1;exitX=0.5;exitY=1;exitDx=0;exitDy=0;" edge="1" parent="1" source="yamRK4CiRdS7FuXm4xir-14" target="yamRK4CiRdS7FuXm4xir-39">
          <mxGeometry relative="1" as="geometry" />
        </mxCell>
        <mxCell id="yamRK4CiRdS7FuXm4xir-14" value="Connections API" style="rounded=1;whiteSpace=wrap;html=1;" vertex="1" parent="1">
          <mxGeometry x="517.5" y="320" width="155" height="60" as="geometry" />
        </mxCell>
        <mxCell id="yamRK4CiRdS7FuXm4xir-22" value="&lt;div&gt;&lt;br&gt;&lt;/div&gt;Location GRPC" style="rounded=1;whiteSpace=wrap;html=1;verticalAlign=top;labelBackgroundColor=default;" vertex="1" parent="1">
          <mxGeometry x="797.5" y="320" width="120" height="60" as="geometry" />
        </mxCell>
        <mxCell id="yamRK4CiRdS7FuXm4xir-42" style="edgeStyle=orthogonalEdgeStyle;rounded=0;orthogonalLoop=1;jettySize=auto;html=1;exitX=0.5;exitY=1;exitDx=0;exitDy=0;" edge="1" parent="1" source="yamRK4CiRdS7FuXm4xir-25" target="yamRK4CiRdS7FuXm4xir-38">
          <mxGeometry relative="1" as="geometry" />
        </mxCell>
        <mxCell id="yamRK4CiRdS7FuXm4xir-25" value="Persons API" style="rounded=1;whiteSpace=wrap;html=1;" vertex="1" parent="1">
          <mxGeometry x="40" y="320" width="160" height="60" as="geometry" />
        </mxCell>
        <mxCell id="yamRK4CiRdS7FuXm4xir-33" value="" style="edgeStyle=orthogonalEdgeStyle;rounded=0;orthogonalLoop=1;jettySize=auto;html=1;" edge="1" parent="1" source="yamRK4CiRdS7FuXm4xir-29">
          <mxGeometry relative="1" as="geometry">
            <mxPoint x="857.5" y="664.74" as="targetPoint" />
          </mxGeometry>
        </mxCell>
        <mxCell id="yamRK4CiRdS7FuXm4xir-36" value="Consumes Location Event" style="edgeLabel;html=1;align=center;verticalAlign=middle;resizable=0;points=[];" vertex="1" connectable="0" parent="yamRK4CiRdS7FuXm4xir-33">
          <mxGeometry x="-0.2239" y="-1" relative="1" as="geometry">
            <mxPoint as="offset" />
          </mxGeometry>
        </mxCell>
        <mxCell id="yamRK4CiRdS7FuXm4xir-29" value="&lt;div&gt;&lt;font&gt;&lt;br&gt;&lt;/font&gt;&lt;/div&gt;&lt;font&gt;&lt;div&gt;&lt;font&gt;&lt;br&gt;&lt;/font&gt;&lt;/div&gt;Kafka Server&lt;/font&gt;&lt;div&gt;locations topic&lt;br&gt;&lt;div&gt;&lt;br&gt;&lt;/div&gt;&lt;/div&gt;" style="points=[];aspect=fixed;html=1;align=center;shadow=0;dashed=0;fillColor=#FF6A00;strokeColor=none;shape=mxgraph.alibaba_cloud.kafka;" vertex="1" parent="1">
          <mxGeometry x="790" y="464.74" width="135" height="100" as="geometry" />
        </mxCell>
        <mxCell id="yamRK4CiRdS7FuXm4xir-30" style="edgeStyle=orthogonalEdgeStyle;rounded=0;orthogonalLoop=1;jettySize=auto;html=1;" edge="1" parent="1" source="yamRK4CiRdS7FuXm4xir-22" target="yamRK4CiRdS7FuXm4xir-29">
          <mxGeometry relative="1" as="geometry">
            <mxPoint x="857.5" y="454.74" as="targetPoint" />
          </mxGeometry>
        </mxCell>
        <mxCell id="yamRK4CiRdS7FuXm4xir-31" value="Produces Location Event" style="edgeLabel;html=1;align=center;verticalAlign=middle;resizable=0;points=[];" vertex="1" connectable="0" parent="yamRK4CiRdS7FuXm4xir-30">
          <mxGeometry x="-0.1237" y="2" relative="1" as="geometry">
            <mxPoint as="offset" />
          </mxGeometry>
        </mxCell>
        <mxCell id="yamRK4CiRdS7FuXm4xir-37" style="edgeStyle=orthogonalEdgeStyle;rounded=0;orthogonalLoop=1;jettySize=auto;html=1;exitX=0.5;exitY=1;exitDx=0;exitDy=0;entryX=1;entryY=0.5;entryDx=0;entryDy=0;" edge="1" parent="1" source="yamRK4CiRdS7FuXm4xir-34" target="yamRK4CiRdS7FuXm4xir-8">
          <mxGeometry relative="1" as="geometry" />
        </mxCell>
        <mxCell id="yamRK4CiRdS7FuXm4xir-34" value="&lt;div&gt;&lt;br&gt;&lt;/div&gt;Location Service" style="rounded=1;whiteSpace=wrap;html=1;verticalAlign=top;labelBackgroundColor=default;" vertex="1" parent="1">
          <mxGeometry x="797.5" y="664.74" width="120" height="60" as="geometry" />
        </mxCell>
        <mxCell id="yamRK4CiRdS7FuXm4xir-46" style="edgeStyle=orthogonalEdgeStyle;rounded=0;orthogonalLoop=1;jettySize=auto;html=1;exitX=0.5;exitY=1;exitDx=0;exitDy=0;entryX=0;entryY=0.5;entryDx=0;entryDy=0;" edge="1" parent="1" source="yamRK4CiRdS7FuXm4xir-38" target="yamRK4CiRdS7FuXm4xir-8">
          <mxGeometry relative="1" as="geometry" />
        </mxCell>
        <mxCell id="yamRK4CiRdS7FuXm4xir-38" value="Person Service" style="rounded=1;whiteSpace=wrap;html=1;" vertex="1" parent="1">
          <mxGeometry x="160" y="551.37" width="160" height="60" as="geometry" />
        </mxCell>
        <mxCell id="yamRK4CiRdS7FuXm4xir-45" style="edgeStyle=orthogonalEdgeStyle;rounded=0;orthogonalLoop=1;jettySize=auto;html=1;exitX=0.5;exitY=1;exitDx=0;exitDy=0;" edge="1" parent="1" source="yamRK4CiRdS7FuXm4xir-39" target="yamRK4CiRdS7FuXm4xir-8">
          <mxGeometry relative="1" as="geometry" />
        </mxCell>
        <mxCell id="yamRK4CiRdS7FuXm4xir-39" value="Connection Service" style="rounded=1;whiteSpace=wrap;html=1;" vertex="1" parent="1">
          <mxGeometry x="515" y="551.37" width="160" height="60" as="geometry" />
        </mxCell>
        <mxCell id="yamRK4CiRdS7FuXm4xir-48" value="&lt;font style=&quot;font-size: 28px;&quot;&gt;UdaConnect Architecture Design&lt;/font&gt;" style="text;html=1;align=center;verticalAlign=middle;resizable=0;points=[];autosize=1;strokeColor=none;fillColor=none;" vertex="1" parent="1">
          <mxGeometry x="285" y="30" width="430" height="50" as="geometry" />
        </mxCell>
      </root>
    </mxGraphModel>
  </diagram>
</mxfile>
